# xmcd
#
# Track frame offsets:
#	150
#	23775
#	44025
#	68025
#	88125
#
# Disc length: 1403 seconds
#
# Revision: 1
# Processed by: cddbd v1.5.1PL0 Copyright (c) Steve Scherf et al.
# Submitted via: CDex 1.50Beta5
#
DISCID=3f057905
DTITLE=川嶋あい - はばたける日まで
DYEAR=2002
DGENRE=Pop
TTITLE0=Blessing 祈り
TTITLE1=飛べない鳥
TTITLE2=最後の夕日
TTITLE3=そこから始めよう
TTITLE4=永遠と呼べる道
EXTD=渋谷の路上ライブにて
EXTT0=
EXTT1=
EXTT2=
EXTT3=
EXTT4=
PLAYORDER=
